<svg xmlns="http://www.w3.org/2000/svg" xmlns:xlink="http://www.w3.org/1999/xlink" width="1920" zoomAndPan="magnify" viewBox="0 0 1440 1348.49996" height="1798" preserveAspectRatio="xMidYMid meet" version="1.0"><defs><clipPath id="e338a9834f"><path d="M 0.265625 0 L 1439.730469 0 L 1439.730469 1348 L 0.265625 1348 Z M 0.265625 0 " clip-rule="nonzero"/></clipPath></defs><g clip-path="url(#e338a9834f)"><path fill="#ffe6f5" d="M 1986.695312 193.835938 C 1989.625 201.558594 1992.042969 209.472656 1993.949219 217.574219 C 1995.855469 225.675781 1997.25 233.957031 1998.132812 242.414062 C 1999.015625 250.871094 1999.382812 259.496094 1999.238281 268.292969 C 1999.089844 277.085938 1998.433594 286.039062 1997.261719 295.148438 C 1996.085938 304.257812 1994.402344 313.515625 1992.207031 322.917969 C 1990.007812 332.320312 1987.304688 341.855469 1984.085938 351.53125 C 1980.871094 361.203125 1977.148438 371 1972.921875 380.921875 C 1968.695312 390.84375 1963.96875 400.875 1958.742188 411.019531 C 1953.511719 421.160156 1947.789062 431.40625 1941.574219 441.746094 C 1935.359375 452.089844 1928.65625 462.519531 1921.464844 473.035156 C 1914.273438 483.554688 1906.605469 494.144531 1898.460938 504.808594 C 1890.316406 515.476562 1881.699219 526.203125 1872.617188 536.992188 C 1863.535156 547.777344 1853.996094 558.617188 1844 569.5 C 1834.003906 580.386719 1823.558594 591.304688 1812.671875 602.261719 C 1801.785156 613.21875 1790.464844 624.195312 1778.714844 635.195312 C 1766.960938 646.199219 1754.792969 657.207031 1742.203125 668.226562 C 1729.617188 679.242188 1716.625 690.257812 1703.230469 701.265625 C 1689.835938 712.277344 1676.058594 723.269531 1661.890625 734.242188 C 1647.722656 745.214844 1633.1875 756.160156 1618.28125 767.070312 C 1603.375 777.984375 1588.117188 788.851562 1572.507812 799.679688 C 1556.898438 810.503906 1540.953125 821.269531 1524.679688 831.980469 C 1508.402344 842.691406 1491.816406 853.332031 1474.914062 863.902344 C 1458.011719 874.472656 1440.816406 884.960938 1423.328125 895.367188 C 1405.839844 905.773438 1388.082031 916.082031 1370.050781 926.296875 C 1352.019531 936.511719 1333.734375 946.621094 1315.203125 956.621094 C 1296.671875 966.621094 1277.914062 976.5 1258.925781 986.261719 C 1239.9375 996.023438 1220.746094 1005.652344 1201.347656 1015.152344 C 1181.953125 1024.648438 1162.371094 1034.003906 1142.613281 1043.21875 C 1122.851562 1052.433594 1102.933594 1061.492188 1082.859375 1070.394531 C 1062.78125 1079.300781 1042.574219 1088.042969 1022.230469 1096.617188 C 1001.886719 1105.195312 981.433594 1113.597656 960.871094 1121.824219 C 940.3125 1130.050781 919.664062 1138.089844 898.9375 1145.949219 C 878.207031 1153.804688 857.417969 1161.46875 836.566406 1168.933594 C 815.71875 1176.402344 794.835938 1183.667969 773.917969 1190.730469 C 753.003906 1197.792969 732.074219 1204.644531 711.140625 1211.28125 C 690.207031 1217.917969 669.285156 1224.335938 648.382812 1230.535156 C 627.480469 1236.734375 606.621094 1242.707031 585.800781 1248.449219 C 564.980469 1254.195312 544.226562 1259.707031 523.539062 1264.980469 C 502.851562 1270.257812 482.253906 1275.292969 461.75 1280.089844 C 441.246094 1284.882812 420.859375 1289.433594 400.585938 1293.734375 C 380.3125 1298.035156 360.179688 1302.085938 340.191406 1305.886719 C 320.199219 1309.6875 300.371094 1313.230469 280.707031 1316.519531 C 261.046875 1319.804688 241.570312 1322.832031 222.285156 1325.601562 C 203 1328.367188 183.925781 1330.871094 165.0625 1333.113281 C 146.199219 1335.355469 127.570312 1337.328125 109.175781 1339.039062 C 90.78125 1340.746094 72.644531 1342.1875 54.761719 1343.359375 C 36.878906 1344.53125 19.277344 1345.433594 1.949219 1346.070312 C -15.375 1346.703125 -32.402344 1347.066406 -49.132812 1347.160156 C -65.859375 1347.25 -82.269531 1347.074219 -98.363281 1346.628906 C -114.453125 1346.179688 -130.203125 1345.460938 -145.621094 1344.472656 C -161.035156 1343.488281 -176.089844 1342.230469 -190.792969 1340.707031 C -205.492188 1339.183594 -219.816406 1337.390625 -233.769531 1335.332031 C -247.722656 1333.273438 -261.28125 1330.953125 -274.449219 1328.363281 C -287.617188 1325.777344 -300.378906 1322.929688 -312.734375 1319.820312 C -325.089844 1316.710938 -337.019531 1313.34375 -348.53125 1309.71875 C -360.039062 1306.09375 -371.113281 1302.21875 -381.753906 1298.085938 C -392.390625 1293.957031 -402.578125 1289.578125 -412.320312 1284.953125 C -422.0625 1280.324219 -431.339844 1275.457031 -440.160156 1270.34375 C -448.980469 1265.230469 -457.328125 1259.882812 -465.203125 1254.300781 C -473.082031 1248.714844 -480.476562 1242.902344 -487.394531 1236.855469 C -494.308594 1230.8125 -500.738281 1224.546875 -506.675781 1218.058594 C -512.613281 1211.570312 -518.054688 1204.867188 -523 1197.949219 C -527.945312 1191.03125 -532.390625 1183.90625 -536.332031 1176.574219 C -540.273438 1169.246094 -543.707031 1161.71875 -546.636719 1153.992188 C -549.5625 1146.265625 -551.980469 1138.351562 -553.886719 1130.25 C -555.796875 1122.148438 -557.191406 1113.871094 -558.074219 1105.414062 C -558.953125 1096.953125 -559.324219 1088.328125 -559.175781 1079.535156 C -559.03125 1070.738281 -558.371094 1061.789062 -557.199219 1052.675781 C -556.027344 1043.566406 -554.34375 1034.3125 -552.144531 1024.910156 C -549.949219 1015.507812 -547.242188 1005.96875 -544.027344 996.296875 C -540.8125 986.621094 -537.089844 976.824219 -532.863281 966.90625 C -528.636719 956.984375 -523.910156 946.953125 -518.679688 936.808594 C -513.453125 926.664062 -507.730469 916.421875 -501.515625 906.078125 C -495.296875 895.734375 -488.59375 885.304688 -481.40625 874.789062 C -474.214844 864.273438 -466.546875 853.679688 -458.402344 843.015625 C -450.253906 832.351562 -441.640625 821.625 -432.558594 810.835938 C -423.476562 800.046875 -413.9375 789.210938 -403.941406 778.324219 C -393.941406 767.441406 -383.5 756.519531 -372.613281 745.5625 C -361.726562 734.605469 -350.40625 723.628906 -338.652344 712.628906 C -326.902344 701.628906 -314.730469 690.617188 -302.144531 679.601562 C -289.554688 668.582031 -276.566406 657.570312 -263.171875 646.558594 C -249.777344 635.550781 -235.996094 624.558594 -221.832031 613.582031 C -207.664062 602.609375 -193.125 591.667969 -178.21875 580.753906 C -163.3125 569.839844 -148.054688 558.972656 -132.445312 548.148438 C -116.835938 537.324219 -100.894531 526.554688 -84.617188 515.84375 C -68.34375 505.132812 -51.753906 494.492188 -34.851562 483.921875 C -17.949219 473.351562 -0.757812 462.863281 16.730469 452.457031 C 34.21875 442.054688 51.980469 431.742188 70.011719 421.527344 C 88.042969 411.3125 106.324219 401.207031 124.855469 391.203125 C 143.386719 381.203125 162.148438 371.324219 181.132812 361.5625 C 200.121094 351.800781 219.3125 342.171875 238.710938 332.675781 C 258.109375 323.175781 277.6875 313.820312 297.449219 304.605469 C 317.207031 295.394531 337.125 286.335938 357.203125 277.429688 C 377.277344 268.523438 397.488281 259.785156 417.832031 251.207031 C 438.175781 242.628906 458.625 234.230469 479.1875 226.003906 C 499.75 217.777344 520.394531 209.734375 541.125 201.878906 C 561.855469 194.019531 582.644531 186.359375 603.492188 178.890625 C 624.339844 171.421875 645.222656 164.15625 666.140625 157.09375 C 687.058594 150.035156 707.984375 143.183594 728.917969 136.542969 C 749.855469 129.90625 770.773438 123.488281 791.675781 117.289062 C 812.578125 111.089844 833.441406 105.117188 854.261719 99.375 C 875.082031 93.628906 895.835938 88.121094 916.519531 82.84375 C 937.207031 77.566406 957.804688 72.53125 978.308594 67.738281 C 998.8125 62.941406 1019.203125 58.394531 1039.472656 54.089844 C 1059.746094 49.789062 1079.878906 45.738281 1099.871094 41.9375 C 1119.863281 38.140625 1139.6875 34.59375 1159.351562 31.308594 C 1179.011719 28.019531 1198.488281 24.992188 1217.773438 22.226562 C 1237.058594 19.457031 1256.132812 16.953125 1274.996094 14.710938 C 1293.859375 12.472656 1312.488281 10.496094 1330.882812 8.789062 C 1349.277344 7.078125 1367.417969 5.640625 1385.296875 4.464844 C 1403.179688 3.292969 1420.785156 2.390625 1438.109375 1.757812 C 1455.4375 1.125 1472.464844 0.761719 1489.191406 0.667969 C 1505.921875 0.574219 1522.332031 0.75 1538.421875 1.199219 C 1554.511719 1.644531 1570.265625 2.363281 1585.679688 3.351562 C 1601.09375 4.339844 1616.152344 5.59375 1630.851562 7.121094 C 1645.550781 8.644531 1659.878906 10.433594 1673.828125 12.492188 C 1687.78125 14.550781 1701.339844 16.875 1714.507812 19.460938 C 1727.679688 22.046875 1740.441406 24.894531 1752.792969 28.003906 C 1765.148438 31.113281 1777.078125 34.480469 1788.589844 38.105469 C 1800.101562 41.730469 1811.175781 45.609375 1821.8125 49.738281 C 1832.449219 53.867188 1842.640625 58.246094 1852.378906 62.875 C 1862.121094 67.5 1871.398438 72.371094 1880.21875 77.480469 C 1889.039062 82.59375 1897.386719 87.941406 1905.265625 93.527344 C 1913.140625 99.109375 1920.539062 104.925781 1927.453125 110.96875 C 1934.371094 117.011719 1940.796875 123.28125 1946.734375 129.769531 C 1952.671875 136.257812 1958.113281 142.960938 1963.0625 149.878906 C 1968.007812 156.796875 1972.449219 163.921875 1976.390625 171.25 C 1980.332031 178.582031 1983.769531 186.109375 1986.695312 193.835938 Z M 1986.695312 193.835938 " fill-opacity="1" fill-rule="nonzero"/></g></svg>